<svg width="13" height="14" viewBox="0 0 13 14" fill="none" xmlns="http://www.w3.org/2000/svg">
<path d="M2.875 6.17501C2.875 4.54891 2.875 3.73528 3.42438 3.23043C3.97313 2.72501 4.8575 2.72501 6.625 2.72501H8.5C10.2675 2.72501 11.1519 2.72501 11.7006 3.23043C12.25 3.73528 12.25 4.54891 12.25 6.17501V9.05001C12.25 10.6761 12.25 11.4897 11.7006 11.9946C11.1519 12.5 10.2675 12.5 8.5 12.5H6.625C4.8575 12.5 3.97313 12.5 3.42438 11.9946C2.875 11.4897 2.875 10.6761 2.875 9.05001V6.17501Z" stroke="#666666" stroke-width="1.5"/>
<path d="M2.875 10.775C2.37772 10.775 1.90081 10.5933 1.54917 10.2698C1.19754 9.94626 1 9.5075 1 9.05V5.6C1 3.43168 1 2.34722 1.7325 1.6739C2.465 1.00057 3.64313 1 6 1H8.5C8.99728 1 9.47419 1.18174 9.82583 1.50524C10.1775 1.82874 10.375 2.2675 10.375 2.725" stroke="#666666" stroke-width="1.5"/>
</svg>
