<svg width="18" height="18" viewBox="0 0 18 18" fill="none" xmlns="http://www.w3.org/2000/svg">
<path d="M0 15.9429V6.68571C0 6.36 0.0798748 6.05143 0.239625 5.76C0.399375 5.46857 0.6195 5.22857 0.9 5.04L7.65 0.411429C8.04375 0.137143 8.49375 0 9 0C9.50625 0 9.95625 0.137143 10.35 0.411429L17.1 5.04C17.3812 5.22857 17.6017 5.46857 17.7615 5.76C17.9212 6.05143 18.0007 6.36 18 6.68571V15.9429C18 16.5086 17.7795 16.993 17.3385 17.3962C16.8975 17.7994 16.368 18.0007 15.75 18H12.375C12.0562 18 11.7892 17.9013 11.574 17.7038C11.3587 17.5063 11.2507 17.2622 11.25 16.9714V11.8286C11.25 11.5371 11.142 11.293 10.926 11.0962C10.71 10.8994 10.443 10.8007 10.125 10.8H7.875C7.55625 10.8 7.28925 10.8987 7.074 11.0962C6.85875 11.2937 6.75075 11.5378 6.75 11.8286V16.9714C6.75 17.2629 6.642 17.5073 6.426 17.7048C6.21 17.9023 5.943 18.0007 5.625 18H2.25C1.63125 18 1.10175 17.7987 0.6615 17.3962C0.22125 16.9937 0.00075 16.5093 0 15.9429Z" fill="#EB4C34"/>
</svg>
