<svg width="8" height="10" viewBox="0 0 8 10" fill="none" xmlns="http://www.w3.org/2000/svg">
<path d="M4 0C2.065 0 0.5 1.565 0.5 3.5C0.5 6.125 4 10 4 10C4 10 7.5 6.125 7.5 3.5C7.5 1.565 5.935 0 4 0ZM4 4.75C3.66848 4.75 3.35054 4.6183 3.11612 4.38388C2.8817 4.14946 2.75 3.83152 2.75 3.5C2.75 3.16848 2.8817 2.85054 3.11612 2.61612C3.35054 2.3817 3.66848 2.25 4 2.25C4.33152 2.25 4.64946 2.3817 4.88388 2.61612C5.1183 2.85054 5.25 3.16848 5.25 3.5C5.25 3.83152 5.1183 4.14946 4.88388 4.38388C4.64946 4.6183 4.33152 4.75 4 4.75Z" fill="#BCBCBC"/>
</svg>
