<svg width="18" height="20" viewBox="0 0 18 20" fill="none" xmlns="http://www.w3.org/2000/svg">
<path d="M15.3637 2.57364C17.0159 4.18665 17.9609 6.36383 17.9988 8.64481C18.0367 10.9258 17.1645 13.1317 15.5666 14.7962L15.3637 15.0012L11.1208 19.1428C10.5824 19.6681 9.85967 19.9739 9.09897 19.9984C8.33827 20.0229 7.59648 19.7641 7.02387 19.2746L6.87988 19.1428L2.63599 15.0003C0.948193 13.3524 0 11.1174 0 8.78695C0 6.4565 0.948193 4.22151 2.63599 2.57364C4.32378 0.925765 6.61292 0 8.99982 0C11.3867 0 13.6759 0.925765 15.3637 2.57364ZM8.99982 5.85798C8.60587 5.85798 8.21577 5.93374 7.8518 6.08094C7.48783 6.22813 7.15712 6.44388 6.87856 6.71585C6.59999 6.98783 6.37901 7.31072 6.22825 7.66608C6.07749 8.02144 5.9999 8.40231 5.9999 8.78695C5.9999 9.17158 6.07749 9.55245 6.22825 9.90781C6.37901 10.2632 6.59999 10.5861 6.87856 10.858C7.15712 11.13 7.48783 11.3458 7.8518 11.493C8.21577 11.6401 8.60587 11.7159 8.99982 11.7159C9.79545 11.7159 10.5585 11.4073 11.1211 10.858C11.6837 10.3087 11.9997 9.56375 11.9997 8.78695C11.9997 8.01014 11.6837 7.26514 11.1211 6.71585C10.5585 6.16657 9.79545 5.85798 8.99982 5.85798Z" fill="#EB4C34"/>
</svg>
