<svg width="12" height="12" viewBox="0 0 12 12" fill="none" xmlns="http://www.w3.org/2000/svg">
<path d="M4.17272 1.988C4.9118 0.662667 5.28105 0 5.83347 0C6.38589 0 6.75514 0.662667 7.49422 1.988L7.68555 2.331C7.89555 2.70783 8.00055 2.89625 8.16389 3.0205C8.32722 3.14475 8.53139 3.19083 8.93972 3.283L9.31072 3.367C10.7457 3.69192 11.4626 3.85408 11.6336 4.403C11.8039 4.95133 11.3151 5.52358 10.3368 6.6675L10.0836 6.96325C9.80597 7.28817 9.66655 7.45092 9.60414 7.65158C9.54172 7.85283 9.56272 8.06983 9.60472 8.50325L9.64322 8.89817C9.7908 10.4247 9.86489 11.1877 9.41805 11.5267C8.97122 11.8656 8.29922 11.5564 6.95639 10.9381L6.60814 10.7782C6.22664 10.6021 6.03589 10.5146 5.83347 10.5146C5.63105 10.5146 5.4403 10.6021 5.0588 10.7782L4.71114 10.9381C3.36772 11.5564 2.69572 11.8656 2.24947 11.5272C1.80205 11.1877 1.87614 10.4247 2.02372 8.89817L2.06222 8.50383C2.10422 8.06983 2.12522 7.85283 2.06222 7.65217C2.00039 7.45092 1.86097 7.28817 1.5833 6.96383L1.33014 6.6675C0.351887 5.52417 -0.136946 4.95192 0.0333871 4.403C0.20372 3.85408 0.921804 3.69133 2.3568 3.367L2.7278 3.283C3.13555 3.19083 3.33914 3.14475 3.50305 3.0205C3.66697 2.89625 3.77139 2.70783 3.98139 2.331L4.17272 1.988Z" fill="#FFDC17"/>
</svg>
