<svg width="19" height="20" viewBox="0 0 19 20" fill="none" xmlns="http://www.w3.org/2000/svg">
<path d="M4.90003 11.13V17.96C4.90003 18.3684 4.73778 18.7601 4.44898 19.0489C4.16017 19.3378 3.76847 19.5 3.36003 19.5H1.55003C1.34696 19.5013 1.14563 19.4625 0.957629 19.3857C0.769632 19.3089 0.598681 19.1956 0.454618 19.0525C0.310555 18.9094 0.196224 18.7391 0.118207 18.5517C0.0401907 18.3642 2.84018e-05 18.1631 3.26833e-05 17.96V11.13C-0.00129583 10.9261 0.037889 10.7239 0.115313 10.5353C0.192738 10.3466 0.306859 10.1752 0.451056 10.031C0.595252 9.88683 0.766651 9.77271 0.955305 9.69528C1.14396 9.61786 1.34611 9.57867 1.55003 9.58H3.36003C3.56311 9.58 3.76419 9.62016 3.95168 9.69817C4.13918 9.77619 4.30939 9.89052 4.45253 10.0346C4.59566 10.1786 4.70889 10.3496 4.78569 10.5376C4.86249 10.7256 4.90135 10.9269 4.90003 11.13ZM11.6 1.55V17.96C11.6 18.1631 11.5599 18.3642 11.4819 18.5517C11.4038 18.7391 11.2895 18.9094 11.1454 19.0525C11.0014 19.1956 10.8304 19.3089 10.6424 19.3857C10.4544 19.4625 10.2531 19.5013 10.05 19.5H8.24003C7.83067 19.5 7.43793 19.3381 7.14754 19.0496C6.85714 18.761 6.69267 18.3693 6.69003 17.96V1.55C6.69265 1.13972 6.8568 0.746997 7.14691 0.456882C7.43703 0.166766 7.82976 0.00262165 8.24003 0H10.05C10.4611 0 10.8554 0.163303 11.146 0.453984C11.4367 0.744666 11.6 1.13891 11.6 1.55ZM18.29 6.73V17.96C18.29 18.3684 18.1278 18.7601 17.839 19.0489C17.5502 19.3378 17.1585 19.5 16.75 19.5H14.94C14.737 19.5013 14.5356 19.4625 14.3476 19.3857C14.1596 19.3089 13.9887 19.1956 13.8446 19.0525C13.7006 18.9094 13.5862 18.7391 13.5082 18.5517C13.4302 18.3642 13.39 18.1631 13.39 17.96V6.73C13.39 6.52645 13.4301 6.3249 13.508 6.13684C13.5859 5.94879 13.7001 5.77792 13.844 5.63398C13.9879 5.49005 14.1588 5.37588 14.3469 5.29799C14.5349 5.22009 14.7365 5.18 14.94 5.18H16.79C17.1924 5.19299 17.5739 5.362 17.8539 5.65129C18.1338 5.94058 18.2902 6.32743 18.29 6.73Z" fill="#EB4C34"/>
</svg>
