<svg width="21" height="23" viewBox="0 0 21 23" fill="none" xmlns="http://www.w3.org/2000/svg">
<path d="M18.6255 1.483C18.8193 1.41647 19.0278 1.40567 19.2274 1.45184C19.4269 1.498 19.6096 1.59927 19.7544 1.74412C19.8993 1.88897 20.0005 2.07158 20.0467 2.27115C20.0928 2.47073 20.0821 2.67926 20.0155 2.873L19.8505 3.344L19.5905 4.04L19.4275 4.455L19.2425 4.907L19.0375 5.389L18.8135 5.894L18.6935 6.152C18.0165 7.607 17.0835 9.308 15.9665 10.482C14.9015 11.602 13.2935 12.635 12.0065 13.368C12.176 14.1808 12.1404 15.023 11.903 15.8185C11.6656 16.6141 11.2337 17.3381 10.6465 17.925C8.37652 20.195 5.83952 20.195 3.95252 19.635C2.52252 19.209 1.34752 18.437 0.223523 17.487C0.177321 17.4482 0.140657 17.3992 0.116361 17.344C0.0920653 17.2887 0.0807867 17.2287 0.0833958 17.1684C0.0860048 17.1081 0.102432 17.0492 0.131409 16.9962C0.160386 16.9433 0.201139 16.8977 0.250523 16.863L0.582523 16.626C1.31052 16.096 2.06152 15.444 2.24052 14.546C2.27452 14.38 2.29552 14.212 2.31352 14.044L2.36352 13.537C2.38104 13.368 2.40573 13.1999 2.43752 13.033C2.57552 12.344 2.86752 11.562 3.57452 10.853C4.16147 10.2658 4.8854 9.83397 5.68098 9.59654C6.47656 9.3591 7.31875 9.32352 8.13152 9.493C8.86452 8.206 9.89652 6.598 11.0175 5.533C12.1915 4.417 13.8925 3.483 15.3475 2.805L15.8605 2.572L16.1105 2.462L16.5925 2.257L17.2565 1.987L17.8325 1.767L18.4225 1.554L18.6255 1.483ZM10.7105 9.103C10.4515 9.498 10.2055 9.901 9.97852 10.293C10.4564 10.6276 10.872 11.0432 11.2065 11.521C11.5985 11.294 12.0015 11.048 12.3965 10.789L12.3665 10.722C12.2022 10.376 11.9788 10.0613 11.7065 9.792C11.4659 9.55124 11.1905 9.34797 10.8895 9.189L10.7105 9.103ZM17.4205 4.078C17.0375 4.237 16.6215 4.418 16.1925 4.618C14.7825 5.275 13.3255 6.098 12.3955 6.982C12.2319 7.13959 12.0751 7.30407 11.9255 7.475C12.2875 7.675 12.7075 7.965 13.1205 8.379C13.5345 8.792 13.8245 9.212 14.0245 9.574C14.1955 9.4244 14.3599 9.26759 14.5175 9.104C15.4015 8.174 16.2245 6.716 16.8815 5.307C17.0815 4.877 17.2615 4.461 17.4215 4.078M3.99952 0C4.1866 -4.16657e-07 4.36993 0.052478 4.52868 0.151471C4.68742 0.250465 4.81521 0.392002 4.89752 0.56L4.94552 0.677L5.07552 1.055C5.21273 1.45718 5.4338 1.82563 5.72412 2.13594C6.01443 2.44625 6.36736 2.69135 6.75952 2.855L6.94452 2.925L7.32252 3.054C7.50966 3.11797 7.67363 3.236 7.79369 3.39316C7.91375 3.55031 7.98452 3.73954 7.99704 3.93691C8.00956 4.13429 7.96328 4.33094 7.86404 4.50201C7.76481 4.67308 7.61707 4.81089 7.43952 4.898L7.32252 4.946L6.94452 5.076C6.54234 5.2132 6.17389 5.43428 5.86358 5.72459C5.55327 6.01491 5.30817 6.36783 5.14452 6.76L5.07452 6.945L4.94552 7.323C4.88155 7.51014 4.76352 7.6741 4.60637 7.79416C4.44921 7.91423 4.25998 7.98499 4.06261 7.99752C3.86524 8.01004 3.66858 7.96376 3.49751 7.86452C3.32644 7.76528 3.18864 7.61755 3.10152 7.44L3.05352 7.323L2.92352 6.945C2.78632 6.54282 2.56524 6.17437 2.27493 5.86406C1.98462 5.55375 1.63169 5.30865 1.23952 5.145L1.05452 5.075L0.676524 4.946C0.489386 4.88203 0.325421 4.764 0.205359 4.60684C0.0852968 4.44969 0.0145304 4.26046 0.0020073 4.06309C-0.0105158 3.86571 0.0357666 3.66906 0.135003 3.49799C0.234239 3.32692 0.381973 3.18911 0.559523 3.102L0.676524 3.054L1.05452 2.924C1.45671 2.7868 1.82515 2.56572 2.13547 2.27541C2.44578 1.98509 2.69087 1.63217 2.85452 1.24L2.92452 1.055L3.05352 0.677C3.1209 0.479587 3.24832 0.308185 3.41795 0.18679C3.58758 0.0653942 3.79093 8.32272e-05 3.99952 0Z" fill="#EB4C34"/>
</svg>
