<svg width="39" height="43" viewBox="0 0 39 43" fill="none" xmlns="http://www.w3.org/2000/svg">
<path d="M7.01083 17.0179C7.38292 17.9775 8.26417 18.6042 9.30208 18.6042C10.34 18.6042 11.2408 17.9775 11.5933 17.0179L12.9837 13.2579C13.0229 13.1208 13.1208 13.0229 13.2579 12.9837L17.0179 11.5933C17.9775 11.2212 18.6042 10.34 18.6042 9.30208C18.6042 8.26417 17.9775 7.36333 17.0179 7.01083L13.2579 5.62042C13.1953 5.59685 13.1385 5.5602 13.0912 5.51292C13.044 5.46564 13.0073 5.40882 12.9837 5.34625L11.5933 1.58625C11.2213 0.626666 10.34 0 9.30208 0C8.26417 0 7.36333 0.626666 7.01083 1.58625L5.62042 5.34625C5.58125 5.48333 5.48333 5.58125 5.34625 5.62042L1.58625 7.01083C0.626667 7.38292 0 8.26417 0 9.30208C0 10.34 0.626667 11.2408 1.58625 11.5933L5.34625 12.9837C5.48333 13.0425 5.58125 13.1404 5.62042 13.2579L7.01083 17.0179ZM6.36458 10.2225L3.8775 9.30208L6.36458 8.38167C7.30458 8.02917 8.02917 7.30458 8.38167 6.36458L9.30208 3.8775L10.2225 6.36458C10.575 7.285 11.3192 8.02917 12.2396 8.36208L14.7267 9.2825L12.2396 10.2029C11.2996 10.5554 10.575 11.28 10.2225 12.22L9.30208 14.7071L8.38167 12.22C8.02917 11.2996 7.285 10.5554 6.36458 10.2225ZM5.875 40.6354C5.875 41.4383 6.54083 42.1042 7.34375 42.1042H10.2812L10.2617 42.1237C12.7488 42.1237 14.1196 42.1238 15.4513 41.5754C16.7829 41.0271 17.7425 40.0675 19.505 38.305L35.4654 22.3446L35.5555 22.2545C36.615 21.1774 37.2201 20.5625 37.6 19.8007C38.3442 18.3124 38.3442 16.5499 37.6 15.0615C37.2436 14.2919 36.6541 13.7025 35.6064 12.6567L35.4654 12.5157L35.3734 12.4256C34.2963 11.3642 33.6814 10.761 32.9196 10.3811C31.4313 9.63696 29.6688 9.63696 28.1804 10.3811C27.4108 10.7375 26.8213 11.327 25.7756 12.3727L25.6346 12.5157L22.7363 15.414L9.69375 28.4565C7.95083 30.1995 6.97167 31.1786 6.42333 32.5103C5.875 33.842 5.875 35.2128 5.875 37.6999V40.6354ZM8.83208 39.1667V37.7175C8.83208 35.5242 8.83208 34.4471 9.165 33.6442C9.49792 32.8412 10.2617 32.0775 11.8088 30.5304L23.8329 18.5063L25.6933 20.3667C26.2613 20.9346 27.2013 20.9346 27.7692 20.3667C28.3371 19.7987 28.3371 18.8587 27.7692 18.2908L25.9088 16.4304L27.7692 14.57C28.6504 13.6887 29.1792 13.16 29.5317 12.9837C30.1975 12.6508 31.0004 12.6508 31.6663 12.9837C32.0187 13.16 32.5475 13.6887 33.4287 14.57C34.31 15.4512 34.8388 15.98 35.015 16.3325C35.3479 16.9983 35.3479 17.8013 35.015 18.4671C34.8388 18.8196 34.31 19.3483 33.4287 20.2296L17.4683 36.19C15.8233 37.835 15.1183 38.5204 14.3546 38.8337C13.5517 39.1667 12.455 39.1667 10.2812 39.1667H8.83208Z" fill="#EB4C34"/>
</svg>
